HIERARCHY
ROOT Hips
{
	OFFSET 0.00000 0.00000 0.00000
	CHANNELS 6 Xposition Yposition Zposition Yrotation Zrotation Xrotation 
	JOINT Lumbar
	{
		OFFSET 0 0 0
		CHANNELS 3 Zrotation Xrotation Yrotation
		JOINT Neck
		{
			OFFSET 0.00 0.2701 0.00
			CHANNELS 3 Zrotation Xrotation Yrotation
			End Site
			{
				OFFSET 0.00 0.1379 0.00
			}
		}
		JOINT RightShoulder
		{
			OFFSET 0.0119 0.2289 0.1181
			CHANNELS 3 Zrotation Xrotation Yrotation
			JOINT RightElbow
			{
				OFFSET 0.00 -0.1475 0.00
				CHANNELS 2 Zrotation Yrotation
				JOINT RightWrist
				{
					OFFSET 0.00 -0.1605 0.00
					CHANNELS 2 Zrotation Xrotation
					End Site
					{
						OFFSET 0.0040 -0.1068 0.0006
					}
				}
			}
		}
		JOINT LeftShoulder
		{
			OFFSET 0.0119 0.2289 -0.1181
			CHANNELS 3 Zrotation Xrotation Yrotation
			JOINT LeftElbow
			{
				OFFSET 0.00 -0.1475 0.00
				CHANNELS 2 Zrotation Yrotation
				JOINT LeftWrist
				{
					OFFSET 0.00 -0.1605 0.00
					CHANNELS 2 Zrotation Xrotation
					End Site
					{
						OFFSET 0.0040 -0.1068 -0.0006
					}
				}
			}
		}
	}
	JOINT RightHip
	{
		OFFSET 0.0316 -0.0424 0.0458
		CHANNELS 3 Zrotation Xrotation Yrotation
		JOINT RightKnee
		{
			OFFSET 0.00 -0.2438 0.00
			CHANNELS 1 Zrotation
			JOINT RightAnkle
			{
				OFFSET 0.00 -0.2449 0.00
				CHANNELS 3 Zrotation Xrotation Yrotation
				End Site
				{
					OFFSET 0.1237 -0.0542 0.0051
				}
			}
		}
	}
	JOINT LeftHip
	{
		OFFSET 0.0316 -0.0424 -0.0458
		CHANNELS 3 Zrotation Xrotation Yrotation
		JOINT LeftKnee
		{
			OFFSET 0.00 -0.2438 0.00
			CHANNELS 1 Zrotation
			JOINT LeftAnkle
			{
				OFFSET 0.00 -0.2449 0.00
				CHANNELS 3 Zrotation Xrotation Yrotation
				End Site
				{
					OFFSET 0.1237 -0.0542 -0.0051
				}
			}
		}
	}
}
MOTION
Frames: 27
Frame Time: 0.02
7e-05 3e-05 -0.0001 20.97286 -34.45761 -3.7671 56.14795 0.74936 2.72332 -5.62266 -1.82141 -0.14067 119.68957 -80.08244 64.17132 23.97773 98.23086 -56.19989 -6.37777 121.15282 75.20055 -64.1712 22.00713 -99.23638 -52.13971 0.02213 52.16487 -0.65102 0.88767 -19.68004 -8.7547 -5.51996 -3.71054 56.01825 2.68901 1.11573 -23.97724 -8.86405 4.66096 3.28277
0.00045 0.00011 -0.00017 21.00461 -34.4401 -3.77111 56.214 0.75507 2.77123 -5.72616 -1.79882 -0.14093 120.09469 -79.75111 64.17127 24.8569 99.20824 -56.50181 -6.20889 121.34061 74.92006 -64.17112 22.8015 -99.36325 -52.41064 0.39385 52.09202 -0.71851 0.48699 -19.67195 -8.70699 -5.48873 -3.68937 55.95851 2.72196 1.25882 -23.97548 -8.84953 4.65169 3.27054
0.00082 0.00019 -0.00024 21.03632 -34.42261 -3.7751 56.27985 0.76075 2.81896 -5.82933 -1.77629 -0.1412 120.49859 -79.42048 64.17122 25.73386 100.18268 -56.80308 -6.0406 121.52768 74.64026 -64.17105 23.59368 -99.4904 -52.68088 0.76442 52.01931 -0.78577 0.08759 -19.66389 -8.65943 -5.4576 -3.66828 55.89888 2.75486 1.40168 -23.97373 -8.83502 4.64242 3.25832
0.00119 0.00027 -0.00031 21.06799 -34.40515 -3.7791 56.34569 0.76645 2.86672 -5.93251 -1.75377 -0.14147 120.90248 -79.0901 64.17117 26.61039 101.15708 -57.10411 -5.87225 121.71488 74.3606 -64.17097 24.38565 -99.61701 -52.95101 1.13499 51.94667 -0.85305 -0.31183 -19.65583 -8.61188 -5.42646 -3.64718 55.83931 2.78771 1.54436 -23.97197 -8.82054 4.63317 3.24612
0.00157 0.00036 -0.00038 21.09966 -34.38769 -3.7831 56.41175 0.77217 2.91465 -6.036 -1.7312 -0.14174 121.30756 -78.75919 64.17111 27.48897 102.13434 -57.40569 -5.70332 121.90281 74.08035 -64.1709 25.17973 -99.74303 -53.22174 1.5067 51.87393 -0.92057 -0.71261 -19.64773 -8.56417 -5.39522 -3.626 55.77966 2.82059 1.68718 -23.97021 -8.80604 4.62393 3.23391
0.00194 0.00044 -0.00045 21.13147 -34.37013 -3.7871 56.47716 0.77776 2.96196 -6.1385 -1.70875 -0.142 121.70894 -78.42918 64.17106 28.3625 103.10274 -57.7063 -5.53637 122.08807 73.80154 -64.17082 25.96785 -99.87251 -53.49092 1.87485 51.8013 -0.98729 -1.10912 -19.63976 -8.51692 -5.36431 -3.60506 55.72007 2.85354 1.83011 -23.96847 -8.79151 4.61458 3.22169
0.00231 0.00052 -0.00052 21.16296 -34.35277 -3.79109 56.54378 0.78363 3.01048 -6.24289 -1.68607 -0.14228 122.11739 -78.09763 64.17101 29.24509 104.088 -58.00848 -5.36561 122.27855 73.52007 -64.17075 26.76705 -99.99505 -53.763 2.24974 51.72852 -1.05552 -1.51362 -19.63154 -8.46882 -5.33279 -3.58369 55.66042 2.8863 1.97266 -23.96669 -8.77707 4.60547 3.2095
0.00268 0.0006 -0.00059 21.19475 -34.33526 -3.79509 56.60929 0.78923 3.05787 -6.34551 -1.6636 -0.14254 122.51917 -77.76764 64.17096 30.11959 105.05754 -58.30933 -5.19838 122.46411 73.24115 -64.17067 27.55612 -100.12367 -54.03226 2.61844 51.6559 -1.12242 -1.91106 -19.62355 -8.42148 -5.3018 -3.5627 55.60085 2.91924 2.11556 -23.96495 -8.76254 4.59614 3.19728
0.00305 0.00068 -0.00065 21.22691 -34.31741 -3.79911 56.67344 0.79454 3.10394 -6.44611 -1.64139 -0.14279 122.91356 -77.43883 64.17091 30.98363 106.00898 -58.60827 -5.03534 122.64413 72.9648 -64.1706 28.33284 -100.26116 -54.29879 2.97963 51.58333 -1.18749 -2.29879 -19.61585 -8.37516 -5.27156 -3.54222 55.54122 2.95241 2.259 -23.96326 -8.74791 4.58653 3.18502
0.00344 0.00077 -0.00073 21.25695 -34.30108 -3.80304 56.74543 0.80163 3.1578 -6.55876 -1.61773 -0.14313 123.35278 -77.10104 64.17085 31.90617 107.06793 -58.91736 -4.84779 122.85746 72.67202 -64.17051 29.18073 -100.35198 -54.58318 3.38423 51.51003 -1.26248 -2.73915 -19.60649 -8.32324 -5.23731 -3.51895 55.48146 2.98431 2.39967 -23.96129 -8.73387 4.5785 3.173
0.00379 0.00084 -0.00079 21.29147 -34.28181 -3.80714 56.80088 0.80492 3.19512 -6.64571 -1.5971 -0.14327 123.69592 -76.78364 64.1708 32.70621 107.89785 -59.2055 -4.71221 122.99958 72.41503 -64.17045 29.87833 -100.53836 -54.82847 3.69707 51.43857 -1.3169 -3.07054 -19.60065 -8.28294 -5.21135 -3.50145 55.42231 3.01883 2.54594 -23.95992 -8.71861 4.56714 3.16047
0.00407 0.00089 -0.00076 21.33848 -34.25235 -3.81174 56.81053 0.79793 3.18739 -6.66381 -1.58489 -0.14282 123.7851 -76.51053 64.1708 33.15941 108.11222 -59.43122 -4.71819 122.9521 72.24775 -64.17046 30.1606 -101.01438 -54.9772 3.75749 51.36956 -1.31129 -3.08299 -19.60434 -8.27641 -5.20963 -3.50087 55.36195 3.0612 2.70996 -23.96002 -8.69982 4.54643 3.14636
0.00431 0.00092 -0.00072 21.38992 -34.22034 -3.81649 56.80364 0.7871 3.16299 -6.6558 -1.57569 -0.14218 123.77591 -76.25998 64.17082 33.49132 108.09473 -59.63622 -4.77635 122.83201 72.11797 -64.1705 30.29231 -101.58174 -55.08466 3.72617 51.30287 -1.28569 -2.98972 -19.61158 -8.28118 -5.21596 -3.50588 55.30271 3.10612 2.87926 -23.96074 -8.67985 4.52241 3.13176
0.00457 0.00096 -0.00068 21.43925 -34.19091 -3.82114 56.80458 0.77793 3.14601 -6.65862 -1.56504 -0.14166 123.8055 -76.00678 64.17082 33.88609 108.17427 -59.85476 -4.8115 122.74137 71.97662 -64.17053 30.4951 -102.08881 -55.20404 3.73684 51.23684 -1.27156 -2.95784 -19.6173 -8.27951 -5.21764 -3.50762 55.24485 3.14943 3.04444 -23.96131 -8.66057 4.50005 3.11748
0.00483 0.00101 -0.00064 21.48915 -34.15551 -3.82595 56.80419 0.76909 3.12965 -6.66567 -1.55475 -0.14098 123.86027 -75.72176 64.17083 34.2491 108.28648 -60.05841 -4.84451 122.66565 71.81233 -64.17055 30.68719 -102.67341 -55.3523 3.74485 51.16364 -1.24728 -2.8694 -19.62265 -8.28336 -5.22354 -3.51242 55.17911 3.19452 3.21644 -23.96139 -8.64066 4.47702 3.1028
0.00507 0.00104 -0.0006 21.53875 -34.13189 -3.83042 56.80263 0.75871 3.10806 -6.65784 -1.54443 -0.14058 123.83883 -75.50805 64.17084 34.64805 108.2783 -60.28495 -4.89346 122.54152 71.7046 -64.17059 30.86485 -103.1206 -55.4305 3.73818 51.10584 -1.23943 -2.8737 -19.62956 -8.27841 -5.22254 -3.51218 55.12996 3.23663 3.37607 -23.96259 -8.62176 4.45458 3.08881
0.00526 0.00105 -0.00054 21.58765 -34.14185 -3.83417 56.80216 0.74468 3.07611 -6.61446 -1.53321 -0.14102 123.63553 -75.48842 64.17082 35.18849 107.97411 -60.60659 -4.98104 122.30287 71.74447 -64.17068 31.04908 -103.14583 -55.32609 3.70014 51.0906 -1.28164 -3.16006 -19.64033 -8.24611 -5.20062 -3.49674 55.1272 3.26878 3.49481 -23.96702 -8.60608 4.43491 3.07717
0.00542 0.00105 -0.00048 21.63584 -34.16367 -3.83751 56.80104 0.72931 3.03952 -6.55716 -1.52189 -0.14173 123.35841 -75.53923 64.1708 35.7667 107.56147 -60.94655 -5.0814 122.01784 71.8397 -64.17078 31.22236 -103.0341 -55.15228 3.65271 51.09068 -1.34107 -3.54312 -19.65245 -8.20461 -5.17147 -3.47601 55.14094 3.29797 3.60159 -23.9725 -8.59143 4.41593 3.06622
0.0056 0.00106 -0.00042 21.68359 -34.17981 -3.84085 56.80009 0.71477 3.005 -6.5068 -1.51066 -0.14229 123.11177 -75.5561 64.17078 36.31975 107.21083 -61.26111 -5.17118 121.75303 71.90934 -64.17087 31.39428 -102.99732 -55.00995 3.61868 51.08337 -1.39282 -3.88226 -19.66367 -8.16745 -5.14557 -3.45761 55.14658 3.32932 3.71789 -23.97733 -8.57617 4.39641 3.05473
0.00577 0.00106 -0.00036 21.73482 -34.19716 -3.84499 56.79915 0.69913 2.96988 -6.45295 -1.4993 -0.14294 122.87343 -75.58211 64.17076 36.90341 106.79499 -61.64884 -5.28327 121.48895 71.98265 -64.17097 31.58727 -102.90704 -54.86712 3.5441 51.07796 -1.44348 -4.21882 -19.67626 -8.12994 -5.12006 -3.43969 55.15483 3.3576 3.81861 -23.98292 -8.5614 4.37764 3.04406
0.00594 0.00106 -0.0003 21.77842 -34.21475 -3.84736 56.79819 0.68557 2.93535 -6.40337 -1.48821 -0.14347 122.60312 -75.60526 64.17075 37.43248 106.49652 -61.8865 -5.3508 121.21374 72.06028 -64.17106 31.73629 -102.89831 -54.70854 3.55142 51.07218 -1.50048 -4.58353 -19.68621 -8.09092 -5.09196 -3.41951 55.16151 3.39116 3.94703 -23.98715 -8.546 4.35764 3.032
0.00612 0.00108 -0.00026 21.80256 -34.23078 -3.84493 56.79791 0.67748 2.90162 -6.36961 -1.47724 -0.1436 122.24942 -75.60536 64.17074 37.81399 106.51173 -61.72665 -5.29648 120.91571 72.14203 -64.17107 31.76256 -103.11347 -54.53189 3.80117 51.06183 -1.57341 -5.01623 -19.68893 -8.04912 -5.05811 -3.39365 55.16019 3.44336 4.17088 -23.9874 -8.52746 4.33277 3.01481
0.00629 0.00111 -0.00023 21.81877 -34.24654 -3.84072 56.79762 0.67163 2.86907 -6.34062 -1.46664 -0.14361 121.8689 -75.5997 64.17074 38.13757 106.65581 -61.41248 -5.19624 120.60918 72.22496 -64.17106 31.74659 -103.42031 -54.34122 4.13173 51.05057 -1.65174 -5.47176 -19.68884 -8.00624 -5.02194 -3.36582 55.15668 3.50039 4.42021 -23.98623 -8.50846 4.30688 2.9964
0.00647 0.00113 -0.00019 21.83766 -34.26194 -3.83733 56.79706 0.66519 2.83735 -6.30919 -1.45625 -0.14368 121.51 -75.59512 64.17074 38.48006 106.76771 -61.15356 -5.11341 120.30902 72.30339 -64.17107 31.75323 -103.70902 -54.15056 4.41637 51.03955 -1.726 -5.90835 -19.68974 -7.96437 -4.98701 -3.33933 55.15391 3.55298 4.6471 -23.98566 -8.49043 4.28232 2.9793
0.00664 0.00115 -0.00016 21.86041 -34.27968 -3.83391 56.79759 0.65698 2.79977 -6.27848 -1.44424 -0.14374 121.1093 -75.59927 64.17073 38.85493 106.76875 -60.95314 -5.04393 119.99622 72.40048 -64.17107 31.74452 -103.89843 -53.98093 4.73864 51.02966 -1.80772 -6.38475 -19.69187 -7.91994 -4.95096 -3.31073 55.1527 3.61478 4.9186 -23.9853 -8.46927 4.25415 2.9591
0.00681 0.00117 -0.00013 21.87327 -34.29246 -3.83011 56.7959 0.65293 2.77463 -6.24751 -1.4357 -0.14378 120.78948 -75.58323 64.17074 39.14836 107.02714 -60.60017 -4.93772 119.70883 72.45829 -64.17106 31.75846 -104.31221 -53.76932 5.00288 51.01714 -1.87491 -6.78199 -19.69078 -7.88077 -4.9169 -3.28616 55.14763 3.65879 5.1044 -23.98417 -8.45445 4.23321 2.945
0.00697 0.0012 -0.00012 21.86031 -34.29041 -3.82587 56.78788 0.66047 2.78447 -6.21555 -1.43661 -0.14381 120.70671 -75.51038 64.17076 39.22985 108.01348 -59.81119 -4.72288 119.48932 72.40694 -64.17102 31.84146 -105.37705 -53.40931 5.07829 50.99624 -1.90099 -6.95807 -19.68129 -7.85572 -4.88796 -3.27293 55.1314 3.65077 5.03833 -23.98121 -8.45764 4.23274 2.94853
